<svg width="250" height="45" viewBox="0 0 250 45" fill="none" xmlns="http://www.w3.org/2000/svg">
<path d="M10.96 27.44C11.92 27.44 12.72 27.0933 13.36 26.4C14.0267 25.7067 14.52 24.84 14.84 23.8C15.16 22.7333 15.32 21.6667 15.32 20.6C15.32 19.5333 15.16 18.48 14.84 17.44C14.52 16.3733 14.0267 15.4933 13.36 14.8C12.72 14.08 11.92 13.72 10.96 13.72C9.97333 13.72 9.14667 14.08 8.48 14.8C7.84 15.4933 7.36 16.3733 7.04 17.44C6.74667 18.48 6.6 19.5333 6.6 20.6C6.6 22.3333 6.96 23.9067 7.68 25.32C8.42667 26.7333 9.52 27.44 10.96 27.44ZM1.16 34.64C0.866667 34.08 0.72 33.4533 0.72 32.76C0.72 31.4267 1.24 30.2 2.28 29.08C3.32 27.9333 4.56 27.2133 6 26.92C4.61333 26.3333 3.53333 25.5067 2.76 24.44C2.01333 23.3467 1.64 22.0667 1.64 20.6C1.64 18.3867 2.49333 16.6267 4.2 15.32C5.90667 14.0133 8.16 13.36 10.96 13.36C12.5867 13.36 14.08 13.6133 15.44 14.12C15.76 13.24 16.2667 12.52 16.96 11.96C17.68 11.4 18.48 11.12 19.36 11.12C19.92 11.12 20.48 11.24 21.04 11.48L20.28 14.12C19.4 13.32 18.52 12.92 17.64 12.92C16.7867 12.92 16.1733 13.36 15.8 14.24C17.2133 14.8267 18.3067 15.6667 19.08 16.76C19.88 17.8533 20.28 19.1333 20.28 20.6C20.28 22.8133 19.4267 24.5733 17.72 25.88C16.0133 27.16 13.76 27.8 10.96 27.8C9.22667 27.8 7.77333 27.5733 6.6 27.12C5.69333 27.28 5.01333 27.64 4.56 28.2C4.10667 28.7333 3.88 29.3467 3.88 30.04C3.88 30.8133 4.12 31.44 4.6 31.92C5.10667 32.4533 5.78667 32.72 6.64 32.72C7.2 32.72 7.8 32.64 8.44 32.48C9.08 32.2933 9.97333 32 11.12 31.6C12.0533 31.3067 12.92 31.16 13.72 31.16C15.4533 31.16 16.9067 31.7067 18.08 32.8C19.28 33.8933 19.88 35.4 19.88 37.32C19.88 38.8133 19.44 40.0667 18.56 41.08C17.7067 42.12 16.6267 42.88 15.32 43.36C14.0133 43.8667 12.7067 44.1333 11.4 44.16C12.7067 43.92 13.7867 43.3067 14.64 42.32C15.4933 41.3333 15.92 40.3067 15.92 39.24C15.92 38.36 15.6267 37.68 15.04 37.2C14.4533 36.72 13.6933 36.48 12.76 36.48C12.36 36.48 11.8667 36.5467 11.28 36.68C9.33333 37.2133 7.68 37.48 6.32 37.48C3.78667 37.48 2.06667 36.5333 1.16 34.64ZM52.3178 31.88C52.3178 32.36 52.4111 32.72 52.5978 32.96C52.8111 33.2 53.0511 33.4133 53.3178 33.6C53.6111 33.7867 53.7845 33.92 53.8378 34H45.8378C45.8911 33.92 46.0645 33.7867 46.3578 33.6C46.6511 33.4133 46.8911 33.2 47.0778 32.96C47.2645 32.6933 47.3578 32.3333 47.3578 31.88V23.48C49.2778 21.7467 50.9311 20.04 52.3178 18.36V31.88ZM29.1178 14V28.96C29.1178 30.0533 29.5045 30.96 30.2778 31.68C31.0511 32.4 31.9978 32.76 33.1178 32.76C34.7445 32.76 36.1978 32.0267 37.4778 30.56V17.24C37.4778 16.7867 37.3711 16.44 37.1578 16.2C36.9711 15.9333 36.7311 15.7067 36.4378 15.52C36.1711 15.3333 36.0111 15.2 35.9578 15.12L42.4378 14V26.12L43.3578 25.4L44.5978 24.48C45.4778 23.7867 46.3978 22.9867 47.3578 22.08V17.64C47.3578 17.1867 47.2645 16.84 47.0778 16.6C46.8911 16.3333 46.6511 16.1067 46.3578 15.92C46.0645 15.7333 45.8911 15.6 45.8378 15.52L52.3178 14V16.88C53.2511 15.68 54.2245 14.8 55.2378 14.24C56.2511 13.6533 57.2378 13.36 58.1978 13.36C58.9445 13.36 59.6378 13.5733 60.2778 14C60.9445 14.4 61.4645 14.9467 61.8378 15.64L58.7978 17.56C58.5311 16.8667 58.1311 16.3067 57.5978 15.88C57.0911 15.4533 56.5178 15.24 55.8778 15.24C54.7045 15.24 53.5178 15.9733 52.3178 17.44C51.5978 18.4 50.4511 19.6667 48.8778 21.24C47.3045 22.8133 45.9711 24 44.8778 24.8C43.8111 25.5733 42.4778 26.64 40.8778 28C39.2778 29.3333 38.1445 30.3867 37.4778 31.16C36.4911 32.36 35.4111 33.24 34.2378 33.8C33.0911 34.36 31.9045 34.64 30.6778 34.64C29.5311 34.64 28.4511 34.3733 27.4378 33.84C26.4511 33.3067 25.6511 32.5467 25.0378 31.56C24.4511 30.5733 24.1578 29.4533 24.1578 28.2V17.24C24.1578 16.7867 24.0645 16.44 23.8778 16.2C23.6911 15.9333 23.4511 15.7067 23.1578 15.52C22.8645 15.3333 22.6911 15.2 22.6378 15.12L29.1178 14ZM37.4778 32.08L37.9178 31.56C38.5311 30.8667 40.0378 29.5067 42.4378 27.48V30.64C42.4378 31.12 42.5311 31.48 42.7178 31.72C42.9311 31.96 43.1711 32.1733 43.4378 32.36C43.7311 32.5467 43.9045 32.68 43.9578 32.76L37.4778 34.28V32.08ZM68.5003 31.88C68.5003 32.36 68.5936 32.72 68.7803 32.96C68.9936 33.2 69.2336 33.4133 69.5003 33.6C69.7936 33.7867 69.967 33.92 70.0203 34H62.0203C62.0736 33.92 62.247 33.7867 62.5403 33.6C62.8336 33.4133 63.0736 33.2 63.2603 32.96C63.447 32.6933 63.5403 32.3333 63.5403 31.88V17.64C63.5403 17.16 63.4336 16.8 63.2203 16.56C63.0336 16.32 62.7936 16.1067 62.5003 15.92C62.2336 15.7333 62.0736 15.6 62.0203 15.52L68.5003 14V31.88ZM62.9803 9.16C62.9803 8.33333 63.2736 7.62667 63.8603 7.04C64.4736 6.42667 65.1936 6.12 66.0203 6.12C66.847 6.12 67.5536 6.42667 68.1403 7.04C68.7536 7.62667 69.0603 8.33333 69.0603 9.16C69.0603 9.98667 68.767 10.7067 68.1803 11.32C67.5936 11.9067 66.8736 12.2 66.0203 12.2C65.1936 12.2 64.4736 11.9067 63.8603 11.32C63.2736 10.7067 62.9803 9.98667 62.9803 9.16ZM92.5866 33.28C93.3599 33.52 94.1332 33.64 94.9066 33.64C95.9999 33.64 97.0799 33.44 98.1466 33.04C99.2132 32.6133 100.173 32.0533 101.027 31.36C100.253 32.4 99.1999 33.2133 97.8666 33.8C96.5332 34.36 95.1066 34.64 93.5866 34.64C91.6666 34.64 89.8932 34.16 88.2666 33.2C86.6399 32.24 85.3466 30.9467 84.3866 29.32C83.4266 27.6933 82.9466 25.92 82.9466 24C82.9466 22.08 83.4266 20.3067 84.3866 18.68C85.3466 17.0533 86.6399 15.76 88.2666 14.8C89.8932 13.84 91.6666 13.36 93.5866 13.36C94.8932 13.36 96.1466 13.6533 97.3466 14.24C98.5466 14.8 99.5199 15.6133 100.267 16.68L97.5866 17.8C97.3999 16.7867 96.9332 15.8667 96.1866 15.04C95.4399 14.1867 94.5732 13.7467 93.5866 13.72C91.7999 13.72 90.4266 14.7067 89.4666 16.68C88.5332 18.6533 88.0666 21.0933 88.0666 24C88.0666 26.1867 88.4132 28.1467 89.1066 29.88C89.7999 31.5867 90.9599 32.72 92.5866 33.28ZM112.024 34.28C113.971 34.28 115.371 33.3333 116.224 31.44C117.104 29.52 117.544 27.04 117.544 24C117.544 20.9867 117.104 18.52 116.224 16.6C115.371 14.68 113.971 13.72 112.024 13.72C110.077 13.72 108.664 14.68 107.784 16.6C106.931 18.52 106.504 20.9867 106.504 24C106.504 27.04 106.931 29.52 107.784 31.44C108.664 33.3333 110.077 34.28 112.024 34.28ZM101.384 24C101.384 22.08 101.864 20.3067 102.824 18.68C103.784 17.0533 105.077 15.76 106.704 14.8C108.331 13.84 110.104 13.36 112.024 13.36C113.944 13.36 115.717 13.84 117.344 14.8C118.971 15.76 120.264 17.0533 121.224 18.68C122.184 20.3067 122.664 22.08 122.664 24C122.664 25.92 122.184 27.6933 121.224 29.32C120.264 30.9467 118.971 32.24 117.344 33.2C115.717 34.16 113.944 34.64 112.024 34.64C110.104 34.64 108.331 34.16 106.704 33.2C105.077 32.24 103.784 30.9467 102.824 29.32C101.864 27.6933 101.384 25.92 101.384 24ZM130.688 31.88C130.688 32.36 130.781 32.72 130.968 32.96C131.181 33.2 131.421 33.4133 131.688 33.6C131.981 33.7867 132.154 33.92 132.208 34H124.208C124.261 33.92 124.434 33.7867 124.728 33.6C125.021 33.4133 125.261 33.2 125.448 32.96C125.634 32.6933 125.728 32.3333 125.728 31.88V4.48C125.728 4 125.621 3.64 125.408 3.4C125.221 3.16 124.981 2.94667 124.688 2.76C124.421 2.57333 124.261 2.44 124.208 2.36L130.688 0.839998V31.88ZM141.078 31.88C141.078 32.36 141.172 32.72 141.358 32.96C141.572 33.2 141.812 33.4133 142.078 33.6C142.372 33.7867 142.545 33.92 142.598 34H134.598C134.652 33.92 134.825 33.7867 135.118 33.6C135.412 33.4133 135.652 33.2 135.838 32.96C136.025 32.6933 136.118 32.3333 136.118 31.88V4.48C136.118 4 136.012 3.64 135.798 3.4C135.612 3.16 135.372 2.94667 135.078 2.76C134.812 2.57333 134.652 2.44 134.598 2.36L141.078 0.839998V31.88ZM153.629 13.72C152.322 13.72 151.349 14.5333 150.709 16.16C150.096 17.76 149.749 19.88 149.669 22.52H157.269C157.242 19.5067 156.989 17.2933 156.509 15.88C156.029 14.44 155.069 13.72 153.629 13.72ZM144.509 24C144.509 22.08 144.896 20.3067 145.669 18.68C146.469 17.0533 147.562 15.76 148.949 14.8C150.336 13.84 151.896 13.36 153.629 13.36C155.149 13.36 156.549 13.7733 157.829 14.6C159.109 15.4267 160.122 16.56 160.869 18C161.616 19.44 161.989 21.0667 161.989 22.88H149.669L149.629 24C149.629 25.9733 149.909 27.8667 150.469 29.68C151.056 31.4933 152.056 32.7067 153.469 33.32C154.162 33.6133 154.882 33.76 155.629 33.76C156.536 33.76 157.402 33.5467 158.229 33.12C159.056 32.6933 159.936 32.1067 160.869 31.36C160.176 32.3733 159.309 33.1733 158.269 33.76C157.229 34.3467 156.056 34.64 154.749 34.64C152.829 34.64 151.082 34.1733 149.509 33.24C147.962 32.28 146.736 30.9867 145.829 29.36C144.949 27.7333 144.509 25.9467 144.509 24ZM190.169 30.48C190.169 31.4667 190.409 32.2267 190.889 32.76C191.395 33.2933 192.075 33.56 192.929 33.56C193.649 33.56 194.369 33.4133 195.089 33.12C193.622 34.1333 191.995 34.64 190.209 34.64C188.822 34.64 187.635 34.2133 186.649 33.36C185.689 32.48 185.209 31.3867 185.209 30.08V22.56C185.582 20.6933 185.942 19.24 186.289 18.2C186.662 17.16 187.142 16.3733 187.729 15.84C188.342 15.28 189.155 15 190.169 15V30.48ZM163.689 24C163.689 22.08 164.169 20.3067 165.129 18.68C166.089 17.0533 167.382 15.76 169.009 14.8C170.635 13.84 172.409 13.36 174.329 13.36C175.635 13.36 176.889 13.6533 178.089 14.24C179.289 14.8 180.262 15.6133 181.009 16.68L178.329 17.8C178.142 16.7867 177.662 15.8533 176.889 15C176.142 14.1467 175.289 13.72 174.329 13.72C172.542 13.72 171.169 14.7067 170.209 16.68C169.275 18.6533 168.809 21.0933 168.809 24C168.809 27.0933 169.382 29.48 170.529 31.16C171.702 32.8133 173.435 33.64 175.729 33.64C178.289 33.64 180.195 32.5867 181.449 30.48C182.702 28.3733 183.649 25.6667 184.289 22.36C184.635 20.52 184.942 19.16 185.209 18.28V14.36H182.929V14H185.209V12.08C185.209 11.6 185.102 11.24 184.889 11C184.702 10.76 184.462 10.5467 184.169 10.36C183.902 10.1733 183.742 10.04 183.689 9.96L190.169 8.44V14H193.169V14.36H190.169C188.969 14.36 188.009 14.7067 187.289 15.4C186.595 16.0667 186.062 16.9333 185.689 18C185.342 19.0667 184.982 20.5467 184.609 22.44C184.075 25.1333 183.449 27.3467 182.729 29.08C182.009 30.8133 180.969 32.1733 179.609 33.16C178.275 34.1467 176.515 34.64 174.329 34.64C172.409 34.64 170.635 34.16 169.009 33.2C167.382 32.24 166.089 30.9467 165.129 29.32C164.169 27.6933 163.689 25.92 163.689 24ZM201.547 31.88C201.547 32.36 201.641 32.72 201.827 32.96C202.041 33.2 202.281 33.4133 202.547 33.6C202.841 33.7867 203.014 33.92 203.067 34H195.067C195.121 33.92 195.294 33.7867 195.587 33.6C195.881 33.4133 196.121 33.2 196.307 32.96C196.494 32.6933 196.587 32.3333 196.587 31.88V17.64C196.587 17.16 196.481 16.8 196.267 16.56C196.081 16.32 195.841 16.1067 195.547 15.92C195.281 15.7333 195.121 15.6 195.067 15.52L201.547 14V31.88ZM196.027 9.16C196.027 8.33333 196.321 7.62667 196.907 7.04C197.521 6.42667 198.241 6.12 199.067 6.12C199.894 6.12 200.601 6.42667 201.187 7.04C201.801 7.62667 202.107 8.33333 202.107 9.16C202.107 9.98667 201.814 10.7067 201.227 11.32C200.641 11.9067 199.921 12.2 199.067 12.2C198.241 12.2 197.521 11.9067 196.907 11.32C196.321 10.7067 196.027 9.98667 196.027 9.16ZM215.618 34.28C217.564 34.28 218.964 33.3333 219.818 31.44C220.698 29.52 221.138 27.04 221.138 24C221.138 20.9867 220.698 18.52 219.818 16.6C218.964 14.68 217.564 13.72 215.618 13.72C213.671 13.72 212.258 14.68 211.378 16.6C210.524 18.52 210.098 20.9867 210.098 24C210.098 27.04 210.524 29.52 211.378 31.44C212.258 33.3333 213.671 34.28 215.618 34.28ZM204.978 24C204.978 22.08 205.458 20.3067 206.418 18.68C207.378 17.0533 208.671 15.76 210.298 14.8C211.924 13.84 213.698 13.36 215.618 13.36C217.538 13.36 219.311 13.84 220.938 14.8C222.564 15.76 223.858 17.0533 224.818 18.68C225.778 20.3067 226.258 22.08 226.258 24C226.258 25.92 225.778 27.6933 224.818 29.32C223.858 30.9467 222.564 32.24 220.938 33.2C219.311 34.16 217.538 34.64 215.618 34.64C213.698 34.64 211.924 34.16 210.298 33.2C208.671 32.24 207.378 30.9467 206.418 29.32C205.458 27.6933 204.978 25.92 204.978 24ZM247.562 31.88C247.562 32.36 247.655 32.72 247.842 32.96C248.055 33.2 248.295 33.4133 248.562 33.6C248.855 33.7867 249.028 33.92 249.082 34H241.082C241.135 33.92 241.308 33.7867 241.602 33.6C241.895 33.4133 242.135 33.2 242.322 32.96C242.508 32.6933 242.602 32.3333 242.602 31.88V19.8C242.602 18.44 242.188 17.3467 241.362 16.52C240.562 15.6933 239.575 15.28 238.402 15.28C236.855 15.3333 235.482 16.0533 234.282 17.44V31.88C234.282 32.36 234.375 32.72 234.562 32.96C234.775 33.2 235.015 33.4133 235.282 33.6C235.575 33.7867 235.748 33.92 235.802 34H227.802C227.855 33.92 228.028 33.7867 228.322 33.6C228.615 33.4133 228.855 33.2 229.042 32.96C229.228 32.6933 229.322 32.3333 229.322 31.88V17.64C229.322 17.16 229.215 16.8 229.002 16.56C228.815 16.32 228.575 16.1067 228.282 15.92C228.015 15.7333 227.855 15.6 227.802 15.52L234.282 14V16.84C235.242 15.6667 236.308 14.8 237.482 14.24C238.682 13.6533 239.895 13.36 241.122 13.36C242.268 13.36 243.335 13.64 244.322 14.2C245.308 14.7333 246.095 15.4933 246.682 16.48C247.268 17.44 247.562 18.5467 247.562 19.8V31.88Z" fill="#F27A5E"/>
</svg>
